<svg width="67" height="67" viewBox="0 0 67 67" fill="none" xmlns="http://www.w3.org/2000/svg">
<circle cx="33.5" cy="33.5" r="33.5" fill="#783E19"/>
<path d="M33.5 0C14.9975 0 0 14.9975 0 33.5C0 52.0025 14.9975 67 33.5 67C52.0004 67 67 52.0004 67 33.5C67 14.9996 52.0025 0 33.5 0ZM33.5167 50.2584C30.3007 50.2584 27.269 49.4544 24.6037 48.0662L14.16 52.819L17.0829 41.1233C15.2572 38.1628 14.16 34.6537 14.16 30.8912C14.16 20.2214 22.8156 11.5596 33.5188 11.5596C44.1823 11.5596 52.84 20.2214 52.84 30.8912C52.8379 41.5965 44.1823 50.2584 33.5167 50.2584Z" fill="#F9ECC9"/>
<path d="M33.5189 15C24.9528 15 18 22.1407 18 30.9805C18 34.9848 19.4287 38.6494 21.7701 41.4459L19.6469 47L24.3695 43.9026C26.9291 45.8658 30.0782 47 33.5189 47C42.0829 47 49 39.8225 49 30.9827C49 22.1407 42.0829 15 33.5189 15ZM43.3291 37.6645C43.1823 38.4567 41.3528 40.158 39.9241 40.4978C36.8505 41.2143 32.4951 38.684 29.6754 36.0043C26.8556 33.3615 24.0401 29.0909 24.4429 25.8788C24.6255 24.4048 26.1255 22.3658 26.8577 22.1017C27.1871 22.026 27.6613 22.026 28.1019 22.026C28.6138 22.0628 29.0543 22.1017 29.2012 22.4026L30.8481 26.8225C30.9572 27.1623 30.7013 27.539 30.3719 27.9567C29.8977 28.5238 29.8243 28.5606 29.3837 29.1667C29.1655 29.4675 29.3103 29.8463 29.3837 29.9957C29.86 31.1667 30.9572 32.4892 31.9454 33.4329C32.9713 34.3788 34.3224 35.3983 35.4952 35.8117C35.5686 35.8117 36.0071 36 36.3365 35.9242C36.6281 35.8874 36.8106 35.6602 37.0666 35.3203C37.5407 34.7165 37.7254 34.4892 38.1282 33.9221C38.4576 33.5065 38.7849 33.355 39.1184 33.5433L42.8508 35.3203C43.1445 35.4719 43.2536 35.8485 43.2893 36.3788C43.3648 36.8355 43.4025 37.3268 43.3291 37.6645Z" fill="#F9ECC9"/>
</svg>
