<svg width="67" height="67" viewBox="0 0 67 67" fill="none" xmlns="http://www.w3.org/2000/svg">
<circle cx="33.5" cy="33.5" r="33.5" fill="#783E19"/>
<path fill-rule="evenodd" clip-rule="evenodd" d="M33.5 0C51.9891 0 67 15.0109 67 33.5C67 51.9891 51.9891 67 33.5 67C15.0109 67 0 51.9891 0 33.5C0 15.0109 15.0109 0 33.5 0ZM33.5 12.5625C27.8138 12.5625 27.1007 12.5866 24.8675 12.6885C22.6389 12.7902 21.1169 13.1442 19.785 13.6617C18.4082 14.1968 17.2406 14.9127 16.0766 16.0767C14.9126 17.2407 14.1967 18.4084 13.6616 19.7852C13.144 21.1169 12.7902 22.6389 12.6884 24.8675C12.5866 27.1007 12.5625 27.8138 12.5625 33.5C12.5625 39.1862 12.5866 39.8993 12.6884 42.1325C12.7902 44.3611 13.144 45.8831 13.6616 47.2148C14.1967 48.5916 14.9126 49.7593 16.0766 50.9234C17.2406 52.0874 18.4082 52.8033 19.785 53.3384C21.1169 53.8558 22.6389 54.2098 24.8675 54.3115C27.1007 54.4134 27.8138 54.4375 33.5 54.4375C39.1862 54.4375 39.8993 54.4134 42.1325 54.3115C44.3611 54.2098 45.8831 53.8558 47.2148 53.3384C48.5916 52.8033 49.7593 52.0874 50.9234 50.9234C52.0874 49.7593 52.8033 48.5916 53.3384 47.2148C53.8558 45.8831 54.2098 44.3611 54.3115 42.1325C54.4134 39.8993 54.4375 39.1862 54.4375 33.5C54.4375 27.8138 54.4134 27.1007 54.3115 24.8675C54.2098 22.6389 53.8558 21.1169 53.3384 19.7852C52.8033 18.4084 52.0874 17.2407 50.9234 16.0767C49.7593 14.9127 48.5916 14.1968 47.2148 13.6617C45.8831 13.1442 44.3611 12.7902 42.1325 12.6885C39.8993 12.5866 39.1862 12.5625 33.5 12.5625ZM33.5 16.335C39.0906 16.335 39.7527 16.3564 41.9606 16.4571C44.002 16.5503 45.1105 16.8913 45.8483 17.178C46.8257 17.5578 47.5232 18.0116 48.2557 18.7443C48.9885 19.4768 49.4422 20.1745 49.822 21.1517C50.1087 21.8895 50.4498 22.998 50.5429 25.0394C50.6436 27.2473 50.665 27.9094 50.665 33.5C50.665 39.0906 50.6436 39.7527 50.5429 41.9606C50.4498 44.002 50.1087 45.1105 49.822 45.8483C49.4422 46.8257 48.9885 47.5232 48.2557 48.2557C47.5232 48.9885 46.8257 49.4422 45.8483 49.822C45.1105 50.1087 44.002 50.4498 41.9606 50.5429C39.7531 50.6436 39.091 50.665 33.5 50.665C27.909 50.665 27.247 50.6436 25.0394 50.5429C22.998 50.4498 21.8895 50.1087 21.1517 49.822C20.1743 49.4422 19.4768 48.9885 18.7442 48.2557C18.0115 47.5232 17.5578 46.8257 17.178 45.8483C16.8913 45.1105 16.5502 44.002 16.457 41.9606C16.3562 39.7527 16.335 39.0906 16.335 33.5C16.335 27.9094 16.3562 27.2473 16.457 25.0394C16.5502 22.998 16.8913 21.8895 17.178 21.1517C17.5578 20.1745 18.0115 19.4768 18.7442 18.7443C19.4768 18.0116 20.1743 17.5578 21.1517 17.178C21.8895 16.8913 22.998 16.5503 25.0394 16.4571C27.2473 16.3564 27.9094 16.335 33.5 16.335ZM33.5 22.7483C27.562 22.7483 22.7483 27.562 22.7483 33.5C22.7483 39.438 27.562 44.2517 33.5 44.2517C39.438 44.2517 44.2517 39.438 44.2517 33.5C44.2517 27.562 39.438 22.7483 33.5 22.7483ZM33.5 40.4791C29.6455 40.4791 26.5209 37.3545 26.5209 33.5C26.5209 29.6455 29.6455 26.5209 33.5 26.5209C37.3545 26.5209 40.4791 29.6455 40.4791 33.5C40.4791 37.3545 37.3545 40.4791 33.5 40.4791ZM47.1891 22.3236C47.1891 23.7112 46.0641 24.8359 44.6764 24.8359C43.2889 24.8359 42.1641 23.7112 42.1641 22.3236C42.1641 20.9359 43.2889 19.8111 44.6764 19.8111C46.0641 19.8111 47.1891 20.9359 47.1891 22.3236Z" fill="#F9ECC9"/>
</svg>
