<svg width="188" height="188" viewBox="0 0 188 188" fill="none" xmlns="http://www.w3.org/2000/svg">
<g clip-path="url(#clip0_211_332)">
<path d="M94 137.989C92.0997 139.213 90.1388 140.341 88.125 141.367V170.375C88.125 171.933 88.744 173.428 89.8457 174.529C90.9475 175.631 92.4419 176.25 94 176.25C95.5581 176.25 97.0525 175.631 98.1543 174.529C99.256 173.428 99.875 171.933 99.875 170.375V141.367C97.8612 140.341 95.9003 139.213 94 137.989Z" fill="#5E7153"/>
<path d="M145.48 45.9717C141.23 35.8244 134.076 27.1595 124.917 21.0655C115.757 14.9715 105.001 11.7202 94.0002 11.7202C82.9989 11.7202 72.2429 14.9715 63.0837 21.0655C53.9244 27.1595 46.7704 35.8244 42.5205 45.9717C33.3759 50.2094 25.6264 56.9622 20.1776 65.441C14.7288 73.9199 11.8058 83.7744 11.7502 93.853C11.6767 122.347 34.8095 146.14 63.2299 146.875C71.8536 147.1 80.4013 145.209 88.1252 141.367V115.223L56.1064 99.2873C54.7041 98.5862 53.6377 97.3566 53.1419 95.8692C52.8964 95.1328 52.7984 94.3551 52.8534 93.5808C52.9085 92.8064 53.1155 92.0505 53.4627 91.3561C53.8099 90.6617 54.2904 90.0425 54.8769 89.5339C55.4634 89.0252 56.1443 88.6371 56.8808 88.3916C58.3682 87.8958 59.9916 88.0112 61.3939 88.7123L88.1252 102.151V64.6248C88.1252 63.0667 88.7441 61.5724 89.8459 60.4706C90.9477 59.3688 92.442 58.7498 94.0002 58.7498C95.5583 58.7498 97.0527 59.3688 98.1544 60.4706C99.2562 61.5724 99.8752 63.0667 99.8752 64.6248V84.5264L126.606 71.0873C128.009 70.3862 129.632 70.2708 131.12 70.7666C132.607 71.2624 133.837 72.3288 134.538 73.7311C135.239 75.1334 135.354 76.7569 134.858 78.2443C134.363 79.7317 133.296 80.9612 131.894 81.6623L99.8752 97.5983V141.367C107.179 144.99 115.222 146.875 123.375 146.875H124.77C153.191 146.14 176.324 122.347 176.25 93.853C176.195 83.7744 173.272 73.9199 167.823 65.441C162.374 56.9622 154.624 50.2094 145.48 45.9717Z" fill="#5E7153"/>
</g>
<defs>
<clipPath id="clip0_211_332">
<rect width="188" height="188" fill="white"/>
</clipPath>
</defs>
</svg>
