<svg width="67" height="67" viewBox="0 0 67 67" fill="none" xmlns="http://www.w3.org/2000/svg">
<circle cx="33.5" cy="33.5" r="33.5" fill="#783E19"/>
<path fill-rule="evenodd" clip-rule="evenodd" d="M33.372 66.9999L33.402 67H33.3916L33.372 66.9999ZM33.6084 67H33.598L33.628 66.9999L33.6084 67ZM33.2697 66.9993L33.302 66.9995H33.2834L33.2697 66.9993ZM33.7166 66.9995H33.698L33.7303 66.9993L33.7166 66.9995ZM33.171 66.9986L33.1926 66.9987L33.1753 66.9986H33.171ZM33.8247 66.9986L33.8074 66.9987L33.829 66.9986H33.8247ZM33.9328 66.9974L33.9252 66.9975L33.9543 66.9971L33.9328 66.9974ZM33.0457 66.9971L33.0748 66.9975L33.0672 66.9974L33.0457 66.9971ZM34.0407 66.9958L34.023 66.9961L34.059 66.9955L34.0407 66.9958ZM32.941 66.9955L32.977 66.9961L32.9593 66.9958L32.941 66.9955ZM34.1485 66.994L34.1247 66.9944L34.158 66.9937L34.1485 66.994ZM32.842 66.9937L32.8753 66.9944L32.8515 66.994L32.842 66.9937ZM32.7194 66.9912L32.7489 66.9919L32.7436 66.9918L32.7194 66.9912ZM34.2564 66.9918L34.2511 66.9919L34.2806 66.9912L34.2564 66.9918ZM32.6119 66.9885L32.6523 66.9895L32.6359 66.9891L32.6119 66.9885ZM34.3641 66.9891L34.3477 66.9895L34.3881 66.9885L34.3641 66.9891ZM34.4718 66.9863L34.4455 66.987L34.4868 66.9859L34.4718 66.9863ZM32.5132 66.9859L32.5545 66.987L32.5282 66.9863L32.5132 66.9859ZM32.419 66.983L32.4484 66.9839L32.4207 66.983L32.3953 66.9822L32.419 66.983ZM34.5793 66.983L34.5516 66.9839L34.581 66.983L34.6047 66.9822L34.5793 66.983ZM34.6868 66.9795L34.6721 66.98L34.7173 66.9784L34.6868 66.9795ZM32.2827 66.9784L32.3279 66.98L32.3132 66.9795L32.2827 66.9784ZM32.1847 66.9747L32.2321 66.9764L32.2058 66.9755L32.1847 66.9747ZM34.7942 66.9755L34.7679 66.9764L34.8153 66.9747L34.7942 66.9755ZM32.0886 66.9708L32.1349 66.9728L32.0986 66.9713L32.0886 66.9708ZM34.9014 66.9713L34.8651 66.9728L34.9115 66.9708L34.9014 66.9713ZM31.9538 66.9649L32.0035 66.9672L31.9913 66.9668L31.9538 66.9649ZM35.0087 66.9668L34.9965 66.9672L35.0462 66.9649L35.0087 66.9668ZM31.8571 66.9605L31.9086 66.9628L31.8843 66.9618L31.8571 66.9605ZM35.1157 66.9618L35.0914 66.9628L35.1429 66.9605L35.1157 66.9618ZM31.7618 66.9556L31.8137 66.9583L31.7772 66.9566L31.7618 66.9556ZM35.2228 66.9566L35.1863 66.9583L35.2382 66.9556L35.2228 66.9566ZM35.3298 66.9509L35.2824 66.9534L35.3244 66.9512L35.3739 66.9484L35.3298 66.9509ZM31.6756 66.9512L31.7176 66.9534L31.6702 66.9509L31.6261 66.9484L31.6756 66.9512ZM35.4366 66.9449L35.4157 66.9461L35.4688 66.9431L35.4366 66.9449ZM31.5312 66.9431L31.5843 66.9461L31.5634 66.9449L31.5312 66.9431ZM31.4367 66.9374L31.4897 66.9406L31.4566 66.9388L31.4367 66.9374ZM35.5434 66.9388L35.5103 66.9406L35.5633 66.9374L35.5434 66.9388ZM31.3466 66.9318L31.3943 66.9348L31.3498 66.9321L31.3051 66.9292L31.3466 66.9318ZM35.6502 66.9321L35.6057 66.9348L35.6534 66.9318L35.6949 66.9292L35.6502 66.9321ZM35.7567 66.9251L35.7407 66.9262L35.7913 66.9228L35.7567 66.9251ZM31.2087 66.9228L31.2593 66.9262L31.2433 66.9251L31.2087 66.9228ZM31.1143 66.9162L31.164 66.9198L31.1368 66.918L31.1143 66.9162ZM35.8632 66.918L35.836 66.9198L35.8857 66.9162L35.8632 66.918ZM31.0202 66.9096L31.0659 66.9128L31.0304 66.9104L31.0202 66.9096ZM35.9696 66.9104L35.9341 66.9128L35.9798 66.9096L35.9696 66.9104ZM30.8937 66.9L30.9337 66.903L30.924 66.9024L30.8937 66.9ZM36.076 66.9024L36.0663 66.903L36.1063 66.9L36.076 66.9024ZM36.1821 66.8941L36.163 66.8956L36.2037 66.8923L36.1821 66.8941ZM30.7963 66.8923L30.837 66.8956L30.8179 66.8941L30.7963 66.8923ZM30.7014 66.8846L30.736 66.8875L30.7116 66.8855L30.7014 66.8846ZM36.2884 66.8855L36.264 66.8875L36.2986 66.8846L36.2884 66.8855ZM30.597 66.8758L30.6074 66.8767L30.6057 66.8766L30.597 66.8758ZM36.3943 66.8766L36.3926 66.8767L36.403 66.8758L36.3943 66.8766ZM36.5003 66.8673L36.4909 66.8681L36.5146 66.866L36.5003 66.8673ZM30.4854 66.866L30.5091 66.8681L30.4997 66.8673L30.4854 66.866ZM30.3872 66.8571L30.4049 66.8588L30.3939 66.8578L30.3872 66.8571ZM36.6061 66.8578L36.5951 66.8588L36.6128 66.8571L36.6061 66.8578ZM28.2656 66.5928C12.259 64.0769 0 50.2087 0 33.5001C0 15.0109 15.0109 0 33.5 0C51.9891 0 67 15.0109 67 33.5001C67 50.2087 54.741 64.0769 38.7344 66.5928V43.1837H46.5401L48.0254 33.5001H38.7344V27.2161C38.7344 24.5668 40.0322 21.9844 44.1937 21.9844H48.418V13.7403C48.418 13.7403 44.5843 13.086 40.9191 13.086C33.2669 13.086 28.2656 17.7236 28.2656 26.1196V33.5001H19.7598V43.1837H28.2656V66.5928Z" fill="#F9ECC9"/>
</svg>
