<svg width="202" height="202" viewBox="0 0 202 202" fill="none" xmlns="http://www.w3.org/2000/svg">
<path d="M75.75 75.75C75.75 61.4417 86.6917 50.5 101 50.5C115.308 50.5 126.25 61.4417 126.25 75.75C126.25 90.0583 115.308 101 101 101C86.6917 101 75.75 90.0583 75.75 75.75ZM101 117.833C62.2833 117.833 50.5 145.608 50.5 145.608V159.917H151.5V145.608C151.5 145.608 139.717 117.833 101 117.833Z" fill="#C66828"/>
<path d="M155.708 92.5833C167.329 92.5833 176.75 83.1627 176.75 71.5417C176.75 59.9207 167.329 50.5 155.708 50.5C144.087 50.5 134.667 59.9207 134.667 71.5417C134.667 83.1627 144.087 92.5833 155.708 92.5833Z" fill="#C66828"/>
<path d="M155.708 109.417C145.608 109.417 138.033 111.942 132.142 116.15C151.5 125.408 159.075 141.4 159.075 143.083V143.925H193.583V132.983C193.583 132.142 184.325 109.417 155.708 109.417Z" fill="#C66828"/>
<path d="M155.708 92.5833C167.329 92.5833 176.75 83.1627 176.75 71.5417C176.75 59.9207 167.329 50.5 155.708 50.5C144.087 50.5 134.667 59.9207 134.667 71.5417C134.667 83.1627 144.087 92.5833 155.708 92.5833Z" fill="#C66828"/>
<path d="M155.708 109.417C145.608 109.417 138.033 111.942 132.142 116.15C151.5 125.408 159.075 141.4 159.075 143.083V143.925H193.583V132.983C193.583 132.142 184.325 109.417 155.708 109.417Z" fill="#C66828"/>
<path d="M46.2917 92.5833C57.9127 92.5833 67.3333 83.1627 67.3333 71.5417C67.3333 59.9207 57.9127 50.5 46.2917 50.5C34.6707 50.5 25.25 59.9207 25.25 71.5417C25.25 83.1627 34.6707 92.5833 46.2917 92.5833Z" fill="#C66828"/>
<path d="M46.2915 109.417C56.3915 109.417 63.9665 111.942 69.8582 116.15C50.4998 125.408 42.9248 141.4 42.9248 143.083V143.925H8.4165V132.983C8.4165 132.142 17.6748 109.417 46.2915 109.417Z" fill="#C66828"/>
</svg>
