<svg width="191" height="191" viewBox="0 0 191 191" fill="none" xmlns="http://www.w3.org/2000/svg">
<path d="M172.243 98.3347C170.533 102.902 166.297 105.854 161.445 105.854H157.498V162.821C157.498 165.68 155.184 168 152.332 168H121.333V131.748C121.333 117.47 109.745 105.854 95.5011 105.854C81.2572 105.854 69.6689 117.47 69.6689 131.748V168H38.6703C35.8184 168 33.5039 165.68 33.5039 162.821V105.854H29.5515C24.7003 105.854 20.4638 102.908 18.7537 98.3399C17.0436 93.7722 18.299 88.7488 21.9569 85.5483L82.2957 28.2707C89.7043 21.2431 101.303 21.2431 108.706 28.2707L169.19 85.6829C172.693 88.7436 173.953 93.767 172.243 98.3347Z" fill="#C66828"/>
</svg>
