<svg width="167" height="167" viewBox="0 0 167 167" fill="none" xmlns="http://www.w3.org/2000/svg">
<path d="M76.1631 14.2446L76.1972 14.2955C78.5978 14.0451 81.0339 13.9167 83.5007 13.9167C121.931 13.9167 153.084 45.0703 153.084 83.5001C153.084 121.93 121.931 153.083 83.5007 153.083C61.1696 153.083 41.2953 142.564 28.5631 126.21L28.5453 126.206L28.5486 126.192C19.3787 114.405 13.9175 99.5898 13.9175 83.5001C13.9175 47.5814 41.1327 18.0192 76.0671 14.3091L76.1631 14.2446ZM83.5007 24.3542C83.1305 24.3542 82.761 24.3577 82.3922 24.3644C83.2453 26.0636 84.161 28.0721 84.9925 30.2813C87.4064 36.695 89.6254 46.154 85.6877 54.5386C82.0513 62.2819 75.7741 64.2853 71.1441 65.4815L70.5554 65.6335C65.988 66.8108 64.2319 67.2635 62.9508 69.2084C61.775 70.9932 61.9531 73.2602 63.3779 77.9035C63.4781 78.2298 63.5865 78.575 63.6995 78.9347C64.2638 80.7327 64.9441 82.9003 65.2987 84.9384C65.7399 87.474 65.8645 90.6978 64.2407 93.8137C62.6299 96.9046 60.4948 99.0116 57.9721 100.386C55.6025 101.677 53.1481 102.167 51.3119 102.492L50.665 102.606C47.0824 103.237 45.3686 103.539 43.6995 105.327C42.4039 106.714 41.5676 109.166 41.0793 112.829C40.8805 114.319 40.7609 115.797 40.6373 117.325L40.571 118.14C40.4319 119.826 40.2596 121.767 39.8805 123.433L39.8784 123.442C50.6914 135.245 66.2318 142.646 83.5007 142.646C94.474 142.646 104.749 139.657 113.558 134.45C112.873 133.753 112.131 132.935 111.398 132.012C109.036 129.038 105.937 123.915 107.011 117.867C107.528 114.959 109.086 112.525 110.593 110.658C112.128 108.755 113.98 106.998 115.6 105.507C115.985 105.152 116.354 104.816 116.707 104.493C117.947 103.361 119.001 102.398 119.903 101.454C121.105 100.194 121.367 99.626 121.38 99.5968C121.853 98.0333 121.274 96.9255 120.642 96.437C120.325 96.1921 119.9 96.014 119.321 96.0098C118.738 96.0049 117.793 96.1796 116.53 96.9798C115.071 97.9038 112.948 98.4744 110.715 97.5754C108.855 96.826 107.824 95.3919 107.329 94.5736C106.327 92.9182 105.765 90.7729 105.399 89.1997C105.116 87.9861 104.846 86.6084 104.6 85.3517C104.502 84.8486 104.407 84.3643 104.317 83.9183C103.965 82.1801 103.669 80.938 103.384 80.1663C103.384 80.1663 103.344 80.0717 103.25 79.8991C103.148 79.7113 103.003 79.4712 102.804 79.1699C102.401 78.5555 101.873 77.8339 101.22 76.9683C100.983 76.6538 100.727 76.3191 100.46 75.9684C99.3392 74.4988 98.0039 72.7481 96.8676 71.0168C95.5052 68.9405 93.9653 66.2273 93.4782 63.3337C93.2208 61.8002 93.2243 60.0292 93.8609 58.2301C94.5122 56.3878 95.7021 54.8727 97.2469 53.7142C100.611 51.1914 105.552 45.5551 109.934 40.0826C111.935 37.5836 113.723 35.2424 115.055 33.4654C105.923 27.6943 95.1023 24.3542 83.5007 24.3542ZM123.354 39.7963C121.979 41.6294 120.142 44.0334 118.081 46.6068C113.894 51.8353 108.344 58.3305 103.82 61.8276C103.996 62.5156 104.518 63.6498 105.594 65.29C106.506 66.6803 107.549 68.0488 108.649 69.4926C108.945 69.8812 109.248 70.2786 109.551 70.6801C110.751 72.2693 112.413 74.487 113.175 76.5515C113.775 78.1763 114.206 80.1601 114.547 81.8496C114.668 82.4459 114.779 83.0158 114.886 83.5641C115.064 84.4715 115.23 85.3204 115.407 86.1345C119.594 84.9398 123.769 85.6613 127.027 88.1803C131.262 91.4548 133.03 97.1308 131.372 102.616C130.611 105.133 128.839 107.208 127.453 108.661C126.277 109.892 124.868 111.178 123.59 112.344C123.273 112.633 122.963 112.916 122.668 113.186C121.068 114.66 119.722 115.965 118.717 117.211C117.683 118.493 117.359 119.294 117.288 119.693C117.018 121.214 117.758 123.238 119.571 125.52C120.392 126.555 121.268 127.427 121.947 128.044C122.027 128.116 122.104 128.185 122.177 128.249C134.714 117.404 142.646 101.378 142.646 83.5001C142.646 66.1877 135.209 50.6126 123.354 39.7963ZM24.355 83.5001C24.355 93.2306 26.7046 102.411 30.8674 110.508C31.4581 106.63 32.6907 101.824 36.0696 98.2044C40.2434 93.733 45.3632 92.8945 48.5816 92.3678C48.9036 92.3149 49.2085 92.2648 49.4895 92.2154C51.213 91.9092 52.2097 91.6392 52.9787 91.2204C53.5945 90.885 54.2856 90.3318 54.9847 88.9902C55.0881 88.7919 55.2791 88.2422 55.0157 86.7274C54.7901 85.431 54.3671 84.0748 53.8136 82.3005C53.6831 81.8816 53.5439 81.4355 53.3997 80.9652C52.1114 76.7672 50.0522 69.8165 54.2343 63.467C57.8641 57.9563 63.7023 56.5475 67.4083 55.6533C67.8102 55.5563 68.1869 55.4654 68.5331 55.3759C72.4501 54.3639 74.6796 53.4258 76.2404 50.1019C78.2958 45.7252 77.4114 39.7692 75.2237 33.9581C74.1869 31.2027 72.9699 28.7815 72.0062 27.0439C71.7035 26.4983 71.4294 26.0253 71.1963 25.6359C44.4366 31.2982 24.355 55.0539 24.355 83.5001Z" fill="#5E7153"/>
</svg>
